<svg width="893" height="565" viewBox="0 0 893 565" fill="none" xmlns="http://www.w3.org/2000/svg">
<path d="M869.262 294.429C847.777 328.336 809.571 349.41 770.335 362.409C748.483 369.649 725.005 369.67 703.566 378.913C629.147 410.963 611.464 498.139 549.002 542.478C517.484 564.846 474.079 568.894 434.888 561.841C371.647 550.448 336.098 484.597 274.758 466.548C211.608 447.957 146.512 483.136 82.5837 477.628C1.72838 470.659 -23.1237 402.387 23.076 346.28C102.717 249.589 54.8226 193.315 68.8864 90.0726C79.6748 10.9298 192.506 -19.2 264.497 12.2861C293.769 25.0766 317.316 46.422 344.229 62.9474C503.856 160.932 654.526 -73.3041 809.617 46.5889C884.471 104.449 919.997 214.326 869.239 294.45L869.262 294.429Z" fill="#D3DFF0"/>
</svg>
