<svg width="212" height="385" viewBox="0 0 212 385" fill="none" xmlns="http://www.w3.org/2000/svg">
<path d="M67.7276 47.0227C77.1731 51.2681 84.8398 58.7442 94.1537 63.2722C111.501 71.7082 132.295 68.971 150.569 75.1661C170.868 82.045 186.716 100.587 190.347 121.688C193.285 138.79 188.115 156.945 177.121 170.314C165.232 184.769 148.136 188.988 152.146 212.012C156.555 236.708 184.109 262.168 168.964 287.708C159.804 301.849 139.64 303.302 126.244 313.522C115.62 321.621 110.102 334.526 103.805 346.301C97.5001 358.079 88.8462 370.094 75.8999 373.405C58.4527 377.871 40.2559 363.363 35.7429 345.95C22.0076 293.008 91.6683 258.914 68.4294 205.714C53.9307 169.524 13.4121 147.336 4.73226 108.265C-3.07723 72.3779 29.0035 29.6326 67.7392 47.027L67.7276 47.0227Z" fill="#0082B3"/>
</svg>
