<svg width="40" height="40" viewBox="0 0 40 40" fill="none" xmlns="http://www.w3.org/2000/svg">
<rect width="40" height="40" rx="10" fill="#F4F5F5"/>
<path d="M20.275 27C20.475 26.9833 20.6458 26.9042 20.7875 26.7625C20.9292 26.6208 21 26.45 21 26.25C21 26.0167 20.925 25.8292 20.775 25.6875C20.625 25.5458 20.4333 25.4833 20.2 25.5C19.5167 25.55 18.7917 25.3625 18.025 24.9375C17.2583 24.5125 16.775 23.7417 16.575 22.625C16.5417 22.4417 16.4542 22.2917 16.3125 22.175C16.1708 22.0583 16.0083 22 15.825 22C15.5917 22 15.4 22.0875 15.25 22.2625C15.1 22.4375 15.05 22.6417 15.1 22.875C15.3833 24.3917 16.05 25.475 17.1 26.125C18.15 26.775 19.2083 27.0667 20.275 27ZM20 30C17.7167 30 15.8125 29.2167 14.2875 27.65C12.7625 26.0833 12 24.1333 12 21.8C12 20.1333 12.6625 18.3208 13.9875 16.3625C15.3125 14.4042 17.3167 12.2833 20 10C22.6833 12.2833 24.6875 14.4042 26.0125 16.3625C27.3375 18.3208 28 20.1333 28 21.8C28 24.1333 27.2375 26.0833 25.7125 27.65C24.1875 29.2167 22.2833 30 20 30ZM20 28C21.7333 28 23.1667 27.4125 24.3 26.2375C25.4333 25.0625 26 23.5833 26 21.8C26 20.5833 25.4958 19.2083 24.4875 17.675C23.4792 16.1417 21.9833 14.4667 20 12.65C18.0167 14.4667 16.5208 16.1417 15.5125 17.675C14.5042 19.2083 14 20.5833 14 21.8C14 23.5833 14.5667 25.0625 15.7 26.2375C16.8333 27.4125 18.2667 28 20 28Z" fill="#466A9C"/>
<path d="M9.5 9.5L30 30" stroke="#466A9C" stroke-width="2" stroke-linecap="round"/>
</svg>
