<svg width="40" height="40" viewBox="0 0 40 40" fill="none" xmlns="http://www.w3.org/2000/svg">
<rect width="40" height="40" rx="10" fill="#F4F5F5"/>
<path d="M18.95 23.55L24.6 17.9L23.175 16.475L18.95 20.7L16.85 18.6L15.425 20.025L18.95 23.55ZM20 30C17.6833 29.4167 15.7708 28.0875 14.2625 26.0125C12.7542 23.9375 12 21.6333 12 19.1V13L20 10L28 13V19.1C28 21.6333 27.2458 23.9375 25.7375 26.0125C24.2292 28.0875 22.3167 29.4167 20 30ZM20 27.9C21.7333 27.35 23.1667 26.25 24.3 24.6C25.4333 22.95 26 21.1167 26 19.1V14.375L20 12.125L14 14.375V19.1C14 21.1167 14.5667 22.95 15.7 24.6C16.8333 26.25 18.2667 27.35 20 27.9Z" fill="#466A9C"/>
</svg>
