<svg width="40" height="40" viewBox="0 0 40 40" fill="none" xmlns="http://www.w3.org/2000/svg">
<rect width="40" height="40" rx="10" fill="#F4F5F5"/>
<path d="M12.5 20.125C11.8 20.125 11.2083 19.8833 10.725 19.4C10.2417 18.9167 10 18.325 10 17.625C10 16.925 10.2417 16.3333 10.725 15.85C11.2083 15.3667 11.8 15.125 12.5 15.125C13.2 15.125 13.7917 15.3667 14.275 15.85C14.7583 16.3333 15 16.925 15 17.625C15 18.325 14.7583 18.9167 14.275 19.4C13.7917 19.8833 13.2 20.125 12.5 20.125ZM17 16.125C16.3 16.125 15.7083 15.8833 15.225 15.4C14.7417 14.9167 14.5 14.325 14.5 13.625C14.5 12.925 14.7417 12.3333 15.225 11.85C15.7083 11.3667 16.3 11.125 17 11.125C17.7 11.125 18.2917 11.3667 18.775 11.85C19.2583 12.3333 19.5 12.925 19.5 13.625C19.5 14.325 19.2583 14.9167 18.775 15.4C18.2917 15.8833 17.7 16.125 17 16.125ZM23 16.125C22.3 16.125 21.7083 15.8833 21.225 15.4C20.7417 14.9167 20.5 14.325 20.5 13.625C20.5 12.925 20.7417 12.3333 21.225 11.85C21.7083 11.3667 22.3 11.125 23 11.125C23.7 11.125 24.2917 11.3667 24.775 11.85C25.2583 12.3333 25.5 12.925 25.5 13.625C25.5 14.325 25.2583 14.9167 24.775 15.4C24.2917 15.8833 23.7 16.125 23 16.125ZM27.5 20.125C26.8 20.125 26.2083 19.8833 25.725 19.4C25.2417 18.9167 25 18.325 25 17.625C25 16.925 25.2417 16.3333 25.725 15.85C26.2083 15.3667 26.8 15.125 27.5 15.125C28.2 15.125 28.7917 15.3667 29.275 15.85C29.7583 16.3333 30 16.925 30 17.625C30 18.325 29.7583 18.9167 29.275 19.4C28.7917 19.8833 28.2 20.125 27.5 20.125ZM14.65 30.125C13.9 30.125 13.2708 29.8375 12.7625 29.2625C12.2542 28.6875 12 28.0083 12 27.225C12 26.3583 12.2958 25.6 12.8875 24.95C13.4792 24.3 14.0667 23.6583 14.65 23.025C15.1333 22.5083 15.55 21.9458 15.9 21.3375C16.25 20.7292 16.6667 20.1583 17.15 19.625C17.5167 19.1917 17.9417 18.8333 18.425 18.55C18.9083 18.2667 19.4333 18.125 20 18.125C20.5667 18.125 21.0917 18.2583 21.575 18.525C22.0583 18.7917 22.4833 19.1417 22.85 19.575C23.3167 20.1083 23.7292 20.6833 24.0875 21.3C24.4458 21.9167 24.8667 22.4917 25.35 23.025C25.9333 23.6583 26.5208 24.3 27.1125 24.95C27.7042 25.6 28 26.3583 28 27.225C28 28.0083 27.7458 28.6875 27.2375 29.2625C26.7292 29.8375 26.1 30.125 25.35 30.125C24.45 30.125 23.5583 30.05 22.675 29.9C21.7917 29.75 20.9 29.675 20 29.675C19.1 29.675 18.2083 29.75 17.325 29.9C16.4417 30.05 15.55 30.125 14.65 30.125Z" fill="#466A9C"/>
</svg>
