<svg width="40" height="40" viewBox="0 0 40 40" fill="none" xmlns="http://www.w3.org/2000/svg">
<rect width="40" height="40" rx="10" fill="#F4F5F5"/>
<mask id="mask0_0_283" style="mask-type:alpha" maskUnits="userSpaceOnUse" x="6" y="7" width="27" height="27">
<rect x="6" y="7" width="27" height="27" fill="#D9D9D9"/>
</mask>
<g mask="url(#mask0_0_283)">
<path d="M19.5 30.6232L17.8688 29.1607C15.975 27.4545 14.4094 25.9826 13.1719 24.7451C11.9344 23.5076 10.95 22.3967 10.2188 21.4123C9.4875 20.4279 8.97656 19.5232 8.68594 18.6982C8.39531 17.8732 8.25 17.0295 8.25 16.167C8.25 14.4045 8.84062 12.9326 10.0219 11.7514C11.2031 10.5701 12.675 9.97949 14.4375 9.97949C15.4125 9.97949 16.3406 10.1857 17.2219 10.5982C18.1031 11.0107 18.8625 11.592 19.5 12.342C20.1375 11.592 20.8969 11.0107 21.7781 10.5982C22.6594 10.1857 23.5875 9.97949 24.5625 9.97949C26.325 9.97949 27.7969 10.5701 28.9781 11.7514C30.1594 12.9326 30.75 14.4045 30.75 16.167C30.75 17.0295 30.6047 17.8732 30.3141 18.6982C30.0234 19.5232 29.5125 20.4279 28.7812 21.4123C28.05 22.3967 27.0656 23.5076 25.8281 24.7451C24.5906 25.9826 23.025 27.4545 21.1312 29.1607L19.5 30.6232ZM19.5 27.5857C21.3 25.9732 22.7812 24.5904 23.9437 23.4373C25.1062 22.2842 26.025 21.2811 26.7 20.4279C27.375 19.5748 27.8438 18.8154 28.1062 18.1498C28.3687 17.4842 28.5 16.8232 28.5 16.167C28.5 15.042 28.125 14.1045 27.375 13.3545C26.625 12.6045 25.6875 12.2295 24.5625 12.2295C23.6812 12.2295 22.8656 12.4779 22.1156 12.9748C21.3656 13.4717 20.85 14.1045 20.5687 14.8732H18.4313C18.15 14.1045 17.6344 13.4717 16.8844 12.9748C16.1344 12.4779 15.3187 12.2295 14.4375 12.2295C13.3125 12.2295 12.375 12.6045 11.625 13.3545C10.875 14.1045 10.5 15.042 10.5 16.167C10.5 16.8232 10.6313 17.4842 10.8938 18.1498C11.1563 18.8154 11.625 19.5748 12.3 20.4279C12.975 21.2811 13.8938 22.2842 15.0563 23.4373C16.2188 24.5904 17.7 25.9732 19.5 27.5857Z" fill="#466A9C"/>
</g>
</svg>
