<svg width="40" height="40" viewBox="0 0 40 40" fill="none" xmlns="http://www.w3.org/2000/svg">
<rect width="40" height="40" rx="10" fill="#F4F5F5"/>
<path d="M21.85 29C20.95 29 20.1917 28.6917 19.575 28.075C18.9583 27.4583 18.65 26.7167 18.65 25.85C18.65 24.5833 19.1625 23.4375 20.1875 22.4125C21.2125 21.3875 22.4917 20.75 24.025 20.5C23.975 19.9 23.825 19.4458 23.575 19.1375C23.325 18.8292 22.9833 18.675 22.55 18.675C22.05 18.675 21.5083 18.8833 20.925 19.3C20.3417 19.7167 19.65 20.4 18.85 21.35C17.55 22.9 16.5958 23.9083 15.9875 24.375C15.3792 24.8417 14.725 25.075 14.025 25.075C13.175 25.075 12.4583 24.7583 11.875 24.125C11.2917 23.4917 11 22.725 11 21.825C11 20.925 11.1958 20.0042 11.5875 19.0625C11.9792 18.1208 12.6417 16.9917 13.575 15.675C13.8917 15.2417 14.125 14.875 14.275 14.575C14.425 14.275 14.5 14.0333 14.5 13.85C14.5 13.7333 14.4792 13.6458 14.4375 13.5875C14.3958 13.5292 14.3333 13.5 14.25 13.5C14.0833 13.5 13.875 13.6042 13.625 13.8125C13.375 14.0208 13.0833 14.3417 12.75 14.775L11 13C11.5333 12.35 12.075 11.8542 12.625 11.5125C13.175 11.1708 13.7167 11 14.25 11C15.0167 11 15.6667 11.2667 16.2 11.8C16.7333 12.3333 17 13 17 13.8C17 14.2833 16.875 14.8167 16.625 15.4C16.375 15.9833 15.9583 16.6833 15.375 17.5C14.7417 18.4 14.2708 19.1917 13.9625 19.875C13.6542 20.5583 13.5 21.1583 13.5 21.675C13.5 21.9583 13.5458 22.1792 13.6375 22.3375C13.7292 22.4958 13.8583 22.575 14.025 22.575C14.1917 22.575 14.3375 22.5292 14.4625 22.4375C14.5875 22.3458 14.8167 22.125 15.15 21.775C15.3667 21.5417 15.625 21.2542 15.925 20.9125C16.225 20.5708 16.5917 20.15 17.025 19.65C18.075 18.4 19.025 17.5083 19.875 16.975C20.725 16.4417 21.6167 16.175 22.55 16.175C23.6667 16.175 24.5833 16.55 25.3 17.3C26.0167 18.05 26.425 19.075 26.525 20.375H29V22.875H26.525C26.3917 24.7417 25.9042 26.2292 25.0625 27.3375C24.2208 28.4458 23.15 29 21.85 29ZM21.9 26.5C22.4333 26.5 22.8833 26.1958 23.25 25.5875C23.6167 24.9792 23.8667 24.1333 24 23.05C23.2333 23.2333 22.5667 23.5958 22 24.1375C21.4333 24.6792 21.15 25.2167 21.15 25.75C21.15 25.9833 21.2167 26.1667 21.35 26.3C21.4833 26.4333 21.6667 26.5 21.9 26.5Z" fill="#466A9C"/>
</svg>
