<svg width="40" height="40" viewBox="0 0 40 40" fill="none" xmlns="http://www.w3.org/2000/svg">
<rect width="40" height="40" rx="10" fill="#F4F5F5"/>
<path d="M23 20.175L21 18.175V13H19V16.175L17 14.175V13H16C15.7167 13 15.4792 12.9042 15.2875 12.7125C15.0958 12.5209 15 12.2834 15 12C15 11.7167 15.0958 11.4792 15.2875 11.2875C15.4792 11.0959 15.7167 11 16 11H24C24.2833 11 24.5208 11.0959 24.7125 11.2875C24.9042 11.4792 25 11.7167 25 12C25 12.2834 24.9042 12.5209 24.7125 12.7125C24.5208 12.9042 24.2833 13 24 13H23V20.175ZM13 27H24.2L18.05 20.85L13 27ZM27.8 30.6L26.2 29H13C12.15 29 11.5458 28.6209 11.1875 27.8626C10.8292 27.1042 10.9167 26.4001 11.45 25.7501L16.65 19.45L9.39999 12.2L10.8 10.8L29.2 29.2001L27.8 30.6Z" fill="#466A9C"/>
</svg>
