<svg width="50" height="49" viewBox="0 0 50 49" fill="none" xmlns="http://www.w3.org/2000/svg">
<path fill-rule="evenodd" clip-rule="evenodd" d="M33.0965 6.65918H16.7982C11.1724 6.65918 6.61182 11.2198 6.61182 16.8456V33.1439C6.61182 38.7696 11.1724 43.3303 16.7982 43.3303H33.0965C38.7223 43.3303 43.2829 38.7696 43.2829 33.1439V16.8456C43.2829 11.2198 38.7223 6.65918 33.0965 6.65918ZM39.7177 33.1439C39.7065 36.7959 36.7485 39.7538 33.0965 39.765H16.7982C13.1461 39.7538 10.1882 36.7959 10.1771 33.1439V16.8456C10.1882 13.1935 13.1461 10.2356 16.7982 10.2244H33.0965C36.7485 10.2356 39.7065 13.1935 39.7177 16.8456V33.1439ZM34.6245 17.3549C35.7497 17.3549 36.6618 16.4428 36.6618 15.3176C36.6618 14.1925 35.7497 13.2804 34.6245 13.2804C33.4993 13.2804 32.5872 14.1925 32.5872 15.3176C32.5872 16.4428 33.4993 17.3549 34.6245 17.3549ZM24.9474 15.827C19.8841 15.827 15.7796 19.9315 15.7796 24.9947C15.7796 30.058 19.8841 34.1625 24.9474 34.1625C30.0106 34.1625 34.1151 30.058 34.1151 24.9947C34.1206 22.5616 33.1564 20.2266 31.4359 18.5061C29.7154 16.7857 27.3805 15.8215 24.9474 15.827ZM19.3448 24.9947C19.3448 28.089 21.8531 30.5973 24.9474 30.5973C28.0416 30.5973 30.5499 28.089 30.5499 24.9947C30.5499 21.9005 28.0416 19.3922 24.9474 19.3922C21.8531 19.3922 19.3448 21.9005 19.3448 24.9947Z" fill="white"/>
</svg>
